<mxfile host="65bd71144e">
    <diagram id="b-we678Z0dv2v8HvskEN" name="Page-1">
        <mxGraphModel dx="1386" dy="792" grid="1" gridSize="10" guides="1" tooltips="1" connect="1" arrows="1" fold="1" page="1" pageScale="1" pageWidth="850" pageHeight="1100" math="0" shadow="0">
            <root>
                <mxCell id="0"/>
                <mxCell id="1" parent="0"/>
                <mxCell id="2" value="Raspberry PI&lt;br&gt;&lt;br&gt;&lt;br&gt;Pini&lt;br&gt;&lt;br&gt;&lt;br&gt;&lt;br&gt;&lt;br&gt;&lt;br&gt;" style="whiteSpace=wrap;html=1;" parent="1" vertex="1">
                    <mxGeometry x="200" y="110" width="380" height="180" as="geometry"/>
                </mxCell>
                <mxCell id="3" value="Baterie Externă&lt;br&gt;10000mAh" style="whiteSpace=wrap;html=1;" parent="1" vertex="1">
                    <mxGeometry x="640" y="170" width="120" height="60" as="geometry"/>
                </mxCell>
                <mxCell id="6" value="Modul Punte H dublă&lt;br&gt;L298N" style="whiteSpace=wrap;html=1;" parent="1" vertex="1">
                    <mxGeometry x="200" y="400" width="350" height="140" as="geometry"/>
                </mxCell>
                <mxCell id="13" value="PIN 39&lt;br&gt;GND" style="whiteSpace=wrap;html=1;fontSize=10;" parent="1" vertex="1">
                    <mxGeometry x="200" y="230" width="50" height="30" as="geometry"/>
                </mxCell>
                <mxCell id="14" value="PIN 40&lt;br&gt;GPIO" style="whiteSpace=wrap;html=1;fontSize=10;" parent="1" vertex="1">
                    <mxGeometry x="200" y="260" width="50" height="30" as="geometry"/>
                </mxCell>
                <mxCell id="15" value="PIN 37&lt;br&gt;GPIO" style="whiteSpace=wrap;html=1;fontSize=10;" parent="1" vertex="1">
                    <mxGeometry x="250" y="230" width="50" height="30" as="geometry"/>
                </mxCell>
                <mxCell id="16" value="PIN 38&lt;br&gt;GPIO" style="whiteSpace=wrap;html=1;fontSize=10;" parent="1" vertex="1">
                    <mxGeometry x="250" y="260" width="50" height="30" as="geometry"/>
                </mxCell>
                <mxCell id="17" value="PIN 35&lt;br&gt;GPIO" style="whiteSpace=wrap;html=1;fontSize=10;" parent="1" vertex="1">
                    <mxGeometry x="300" y="230" width="50" height="30" as="geometry"/>
                </mxCell>
                <mxCell id="18" value="PIN 36&lt;br&gt;GPIO" style="whiteSpace=wrap;html=1;fontSize=10;" parent="1" vertex="1">
                    <mxGeometry x="300" y="260" width="50" height="30" as="geometry"/>
                </mxCell>
                <mxCell id="19" value="PIN 33&lt;br&gt;PWM" style="whiteSpace=wrap;html=1;fontSize=10;" parent="1" vertex="1">
                    <mxGeometry x="350" y="230" width="50" height="30" as="geometry"/>
                </mxCell>
                <mxCell id="20" value="PIN 34&lt;br&gt;GND" style="whiteSpace=wrap;html=1;fontSize=10;" parent="1" vertex="1">
                    <mxGeometry x="350" y="260" width="50" height="30" as="geometry"/>
                </mxCell>
                <mxCell id="22" value="PIN 31&lt;br&gt;GPIO" style="whiteSpace=wrap;html=1;fontSize=10;" parent="1" vertex="1">
                    <mxGeometry x="400" y="230" width="50" height="30" as="geometry"/>
                </mxCell>
                <mxCell id="23" value="PIN 32&lt;br&gt;PWM" style="whiteSpace=wrap;html=1;fontSize=10;" parent="1" vertex="1">
                    <mxGeometry x="400" y="260" width="50" height="30" as="geometry"/>
                </mxCell>
                <mxCell id="24" value="PIN 29&lt;br&gt;GPIO" style="whiteSpace=wrap;html=1;fontSize=10;" parent="1" vertex="1">
                    <mxGeometry x="450" y="230" width="50" height="30" as="geometry"/>
                </mxCell>
                <mxCell id="25" value="PIN 30&lt;br&gt;GND" style="whiteSpace=wrap;html=1;fontSize=10;" parent="1" vertex="1">
                    <mxGeometry x="450" y="260" width="50" height="30" as="geometry"/>
                </mxCell>
                <mxCell id="26" value="..." style="text;strokeColor=none;align=center;fillColor=none;html=1;verticalAlign=middle;whiteSpace=wrap;rounded=0;fontSize=10;" parent="1" vertex="1">
                    <mxGeometry x="490" y="230" width="60" height="30" as="geometry"/>
                </mxCell>
                <mxCell id="27" value="..." style="text;strokeColor=none;align=center;fillColor=none;html=1;verticalAlign=middle;whiteSpace=wrap;rounded=0;fontSize=10;" parent="1" vertex="1">
                    <mxGeometry x="490" y="260" width="60" height="30" as="geometry"/>
                </mxCell>
                <mxCell id="36" style="edgeStyle=none;html=1;exitX=0.5;exitY=0;exitDx=0;exitDy=0;entryX=0.5;entryY=0;entryDx=0;entryDy=0;fontSize=10;endArrow=none;endFill=0;" parent="1" source="28" target="19" edge="1">
                    <mxGeometry relative="1" as="geometry">
                        <Array as="points">
                            <mxPoint x="225" y="360"/>
                            <mxPoint x="150" y="360"/>
                            <mxPoint x="150" y="200"/>
                            <mxPoint x="375" y="200"/>
                        </Array>
                    </mxGeometry>
                </mxCell>
                <mxCell id="28" value="ENA" style="whiteSpace=wrap;html=1;fontSize=10;" parent="1" vertex="1">
                    <mxGeometry x="200" y="400" width="50" height="30" as="geometry"/>
                </mxCell>
                <mxCell id="37" style="edgeStyle=none;html=1;exitX=0.5;exitY=0;exitDx=0;exitDy=0;entryX=0.5;entryY=0;entryDx=0;entryDy=0;fontSize=10;endArrow=none;endFill=0;" parent="1" source="29" target="22" edge="1">
                    <mxGeometry relative="1" as="geometry">
                        <Array as="points">
                            <mxPoint x="275" y="350"/>
                            <mxPoint x="160" y="350"/>
                            <mxPoint x="160" y="210"/>
                            <mxPoint x="425" y="210"/>
                        </Array>
                    </mxGeometry>
                </mxCell>
                <mxCell id="29" value="IN1" style="whiteSpace=wrap;html=1;fontSize=10;" parent="1" vertex="1">
                    <mxGeometry x="250" y="400" width="50" height="30" as="geometry"/>
                </mxCell>
                <mxCell id="38" style="edgeStyle=none;html=1;exitX=0.5;exitY=0;exitDx=0;exitDy=0;entryX=0.5;entryY=0;entryDx=0;entryDy=0;fontSize=10;endArrow=none;endFill=0;" parent="1" source="30" target="24" edge="1">
                    <mxGeometry relative="1" as="geometry">
                        <Array as="points">
                            <mxPoint x="325" y="330"/>
                            <mxPoint x="170" y="330"/>
                            <mxPoint x="170" y="220"/>
                            <mxPoint x="475" y="220"/>
                        </Array>
                    </mxGeometry>
                </mxCell>
                <mxCell id="30" value="IN2" style="whiteSpace=wrap;html=1;fontSize=10;" parent="1" vertex="1">
                    <mxGeometry x="300" y="400" width="50" height="30" as="geometry"/>
                </mxCell>
                <mxCell id="40" style="edgeStyle=none;html=1;exitX=0.5;exitY=0;exitDx=0;exitDy=0;entryX=0.5;entryY=1;entryDx=0;entryDy=0;fontSize=10;endArrow=none;endFill=0;" parent="1" source="31" target="14" edge="1">
                    <mxGeometry relative="1" as="geometry">
                        <Array as="points">
                            <mxPoint x="375" y="320"/>
                            <mxPoint x="225" y="320"/>
                        </Array>
                    </mxGeometry>
                </mxCell>
                <mxCell id="31" value="IN3" style="whiteSpace=wrap;html=1;fontSize=10;" parent="1" vertex="1">
                    <mxGeometry x="350" y="400" width="50" height="30" as="geometry"/>
                </mxCell>
                <mxCell id="41" style="edgeStyle=none;html=1;exitX=0.5;exitY=0;exitDx=0;exitDy=0;entryX=0.5;entryY=1;entryDx=0;entryDy=0;fontSize=10;endArrow=none;endFill=0;" parent="1" source="32" target="16" edge="1">
                    <mxGeometry relative="1" as="geometry">
                        <Array as="points">
                            <mxPoint x="425" y="360"/>
                            <mxPoint x="400" y="360"/>
                            <mxPoint x="400" y="310"/>
                            <mxPoint x="275" y="310"/>
                        </Array>
                    </mxGeometry>
                </mxCell>
                <mxCell id="32" value="IN4" style="whiteSpace=wrap;html=1;fontSize=10;" parent="1" vertex="1">
                    <mxGeometry x="400" y="400" width="50" height="30" as="geometry"/>
                </mxCell>
                <mxCell id="39" style="edgeStyle=none;html=1;exitX=0.5;exitY=0;exitDx=0;exitDy=0;entryX=0.5;entryY=1;entryDx=0;entryDy=0;fontSize=10;endArrow=none;endFill=0;" parent="1" source="33" target="23" edge="1">
                    <mxGeometry relative="1" as="geometry">
                        <Array as="points">
                            <mxPoint x="475" y="350"/>
                            <mxPoint x="425" y="350"/>
                        </Array>
                    </mxGeometry>
                </mxCell>
                <mxCell id="33" value="ENB" style="whiteSpace=wrap;html=1;fontSize=10;" parent="1" vertex="1">
                    <mxGeometry x="450" y="400" width="50" height="30" as="geometry"/>
                </mxCell>
                <mxCell id="42" style="edgeStyle=none;html=1;exitX=0.5;exitY=0;exitDx=0;exitDy=0;fontSize=10;endArrow=none;endFill=0;entryX=0.5;entryY=0;entryDx=0;entryDy=0;" parent="1" source="35" target="13" edge="1">
                    <mxGeometry relative="1" as="geometry">
                        <mxPoint x="524.8333333333335" y="380" as="targetPoint"/>
                        <Array as="points">
                            <mxPoint x="525" y="380"/>
                            <mxPoint x="130" y="380"/>
                            <mxPoint x="130" y="190"/>
                            <mxPoint x="225" y="190"/>
                        </Array>
                    </mxGeometry>
                </mxCell>
                <mxCell id="35" value="GND" style="whiteSpace=wrap;html=1;fontSize=10;" parent="1" vertex="1">
                    <mxGeometry x="500" y="400" width="50" height="30" as="geometry"/>
                </mxCell>
                <mxCell id="44" value="OUT1" style="whiteSpace=wrap;html=1;fontSize=10;" vertex="1" parent="1">
                    <mxGeometry x="200" y="480" width="50" height="30" as="geometry"/>
                </mxCell>
                <mxCell id="45" value="OUT2" style="whiteSpace=wrap;html=1;fontSize=10;" vertex="1" parent="1">
                    <mxGeometry x="200" y="510" width="50" height="30" as="geometry"/>
                </mxCell>
                <mxCell id="72" style="edgeStyle=none;html=1;exitX=1;exitY=0.5;exitDx=0;exitDy=0;entryX=0;entryY=0.25;entryDx=0;entryDy=0;endArrow=none;endFill=0;" edge="1" parent="1" source="47" target="56">
                    <mxGeometry relative="1" as="geometry"/>
                </mxCell>
                <mxCell id="47" value="OUT3" style="whiteSpace=wrap;html=1;fontSize=10;" vertex="1" parent="1">
                    <mxGeometry x="500" y="480" width="50" height="30" as="geometry"/>
                </mxCell>
                <mxCell id="71" style="edgeStyle=none;html=1;exitX=1;exitY=0.5;exitDx=0;exitDy=0;entryX=0;entryY=0.75;entryDx=0;entryDy=0;endArrow=none;endFill=0;" edge="1" parent="1" source="48" target="56">
                    <mxGeometry relative="1" as="geometry"/>
                </mxCell>
                <mxCell id="48" value="OUT4" style="whiteSpace=wrap;html=1;fontSize=10;" vertex="1" parent="1">
                    <mxGeometry x="500" y="510" width="50" height="30" as="geometry"/>
                </mxCell>
                <mxCell id="49" value="12V" style="whiteSpace=wrap;html=1;fontSize=10;" vertex="1" parent="1">
                    <mxGeometry x="325" y="510" width="50" height="30" as="geometry"/>
                </mxCell>
                <mxCell id="62" style="edgeStyle=none;html=1;exitX=0.5;exitY=1;exitDx=0;exitDy=0;entryX=0.75;entryY=0;entryDx=0;entryDy=0;endArrow=none;endFill=0;" edge="1" parent="1" source="50" target="60">
                    <mxGeometry relative="1" as="geometry"/>
                </mxCell>
                <mxCell id="50" value="OUT4" style="whiteSpace=wrap;html=1;fontSize=10;" vertex="1" parent="1">
                    <mxGeometry x="375" y="510" width="50" height="30" as="geometry"/>
                </mxCell>
                <mxCell id="52" value="" style="edgeStyle=none;html=1;endArrow=none;endFill=0;" edge="1" parent="1" source="51" target="3">
                    <mxGeometry relative="1" as="geometry"/>
                </mxCell>
                <mxCell id="51" value="USB-C" style="whiteSpace=wrap;html=1;fontSize=10;" vertex="1" parent="1">
                    <mxGeometry x="530" y="185" width="50" height="30" as="geometry"/>
                </mxCell>
                <mxCell id="67" style="edgeStyle=none;html=1;exitX=1;exitY=0.75;exitDx=0;exitDy=0;entryX=0;entryY=0.5;entryDx=0;entryDy=0;endArrow=none;endFill=0;" edge="1" parent="1" source="53" target="45">
                    <mxGeometry relative="1" as="geometry"/>
                </mxCell>
                <mxCell id="70" style="edgeStyle=none;html=1;exitX=1;exitY=0.25;exitDx=0;exitDy=0;entryX=0;entryY=0.5;entryDx=0;entryDy=0;endArrow=none;endFill=0;" edge="1" parent="1" source="53" target="44">
                    <mxGeometry relative="1" as="geometry"/>
                </mxCell>
                <mxCell id="53" value="Motor Stânga" style="whiteSpace=wrap;html=1;" vertex="1" parent="1">
                    <mxGeometry x="40" y="474" width="100" height="70" as="geometry"/>
                </mxCell>
                <mxCell id="56" value="Motor Dreapta" style="whiteSpace=wrap;html=1;" vertex="1" parent="1">
                    <mxGeometry x="610" y="476" width="100" height="70" as="geometry"/>
                </mxCell>
                <mxCell id="61" style="edgeStyle=none;html=1;exitX=0.25;exitY=0;exitDx=0;exitDy=0;entryX=0.5;entryY=1;entryDx=0;entryDy=0;endArrow=none;endFill=0;" edge="1" parent="1" source="60" target="49">
                    <mxGeometry relative="1" as="geometry"/>
                </mxCell>
                <mxCell id="75" style="edgeStyle=none;html=1;exitX=1;exitY=0.25;exitDx=0;exitDy=0;entryX=0;entryY=0.25;entryDx=0;entryDy=0;endArrow=none;endFill=0;" edge="1" parent="1" source="60" target="74">
                    <mxGeometry relative="1" as="geometry"/>
                </mxCell>
                <mxCell id="76" style="edgeStyle=none;html=1;exitX=1;exitY=0.75;exitDx=0;exitDy=0;entryX=0;entryY=0.75;entryDx=0;entryDy=0;endArrow=none;endFill=0;" edge="1" parent="1" source="60" target="74">
                    <mxGeometry relative="1" as="geometry"/>
                </mxCell>
                <mxCell id="60" value="Transformator CC" style="whiteSpace=wrap;html=1;" vertex="1" parent="1">
                    <mxGeometry x="325" y="570" width="100" height="70" as="geometry"/>
                </mxCell>
                <mxCell id="74" value="Acumulator NiMh 7.2V 3000mAh" style="whiteSpace=wrap;html=1;" vertex="1" parent="1">
                    <mxGeometry x="470" y="570" width="100" height="70" as="geometry"/>
                </mxCell>
            </root>
        </mxGraphModel>
    </diagram>
</mxfile>